# xmcd
#
# Track frame offsets: 
#        150
#        14033
#        25638
#        39466
#        51758
#        65777
#        91889
#        109817
#        128693
#        142985
#        156545
#        169342
#        181165
#        198274
#        210774
#        225554
#
# Disc length: 3177 seconds
#
# Revision: 0
# Processed by: cddbd v1.5.2PL0 Copyright (c) Steve Scherf et al.
# Submitted via: ExactAudioCopyFreeDBPlugin 1.0
#
DISCID=d40c6710
DTITLE=Various Artist - Heavy Heart Blues [CD01)
DYEAR=1900
DGENRE=Blues
TTITLE0=Big Bill Broonzy - Big Bill Blues
TTITLE1=Screamin Jay Hawkins - Well I Tried
TTITLE2=John Lee Hooker - Decoration Day Blues
TTITLE3=Johnny Guitar Watson - Too Tired
TTITLE4=King Curtis and Ronnie Miller - Hello Sunshine
TTITLE5=Guitar Slim - Walkin' Boogie
TTITLE6=Memphis Slim - In The Evening When The Sun Goes Down
TTITLE7=Lightnin' Hopkins - Black Cat Blues
TTITLE8=Leroy Carr - Midnight Hour Blues
TTITLE9=Clarence Gatemouth Brown - Win With Me Baby
TTITLE10=Little Walter - Mellow Down Easy
TTITLE11=Buddy Guy - Try To Quit You Baby
TTITLE12=Bo Diddley - Say Boss Man
TTITLE13=Champion Jack Dupree - Morning Tease
TTITLE14=Sonny Boy Williamson - Deep Down In The Ground
TTITLE15=Bukka White - Special Stream Line
EXTD=
EXTT0=
EXTT1=
EXTT2=
EXTT3=
EXTT4=
EXTT5=
EXTT6=
EXTT7=
EXTT8=
EXTT9=
EXTT10=
EXTT11=
EXTT12=
EXTT13=
EXTT14=
EXTT15=
PLAYORDER=
